<svg xmlns="http://www.w3.org/2000/svg" xmlns:xlink="http://www.w3.org/1999/xlink" width="1920" zoomAndPan="magnify" viewBox="0 0 1440 89.999999" height="120" preserveAspectRatio="xMidYMid meet" version="1.0"><defs><g/><clipPath id="56f5abfa6d"><path d="M 679 12.683594 L 761 12.683594 L 761 77.183594 L 679 77.183594 Z M 679 12.683594 " clip-rule="nonzero"/></clipPath><clipPath id="a6a652d927"><path d="M 21.242188 33 L 544 33 L 544 57 L 21.242188 57 Z M 21.242188 33 " clip-rule="nonzero"/></clipPath><clipPath id="aae9177a16"><path d="M 896 33 L 1418.492188 33 L 1418.492188 57 L 896 57 Z M 896 33 " clip-rule="nonzero"/></clipPath></defs><g clip-path="url(#56f5abfa6d)"><path fill="#e83975" d="M 679.890625 44.984375 L 719.996094 77.027344 L 760.105469 44.984375 L 719.996094 12.964844 Z M 679.890625 44.984375 " fill-opacity="1" fill-rule="nonzero"/></g><path fill="#e83975" d="M 614.515625 44.984375 L 638.316406 64 L 662.121094 44.984375 L 638.316406 25.992188 Z M 614.515625 44.984375 " fill-opacity="1" fill-rule="nonzero"/><path fill="#e83975" d="M 561.640625 44.984375 L 580.394531 59.957031 L 599.148438 44.984375 L 580.394531 30.015625 Z M 561.640625 44.984375 " fill-opacity="1" fill-rule="nonzero"/><g clip-path="url(#a6a652d927)"><path fill="#e83975" d="M 518.933594 41.53125 L 518.933594 40.964844 L 57.722656 40.964844 L 43.339844 33.445312 L 21.242188 44.984375 L 43.339844 56.527344 L 57.722656 49.03125 L 518.933594 49.03125 L 518.933594 48.460938 L 528.878906 55.347656 L 543.828125 44.984375 L 528.878906 34.648438 Z M 518.933594 41.53125 " fill-opacity="1" fill-rule="nonzero"/></g><path fill="#e83975" d="M 777.875 44.984375 L 801.679688 64 L 825.480469 44.984375 L 801.679688 25.992188 Z M 777.875 44.984375 " fill-opacity="1" fill-rule="nonzero"/><path fill="#e83975" d="M 840.847656 44.984375 L 859.601562 59.957031 L 878.351562 44.984375 L 859.601562 30.015625 Z M 840.847656 44.984375 " fill-opacity="1" fill-rule="nonzero"/><g clip-path="url(#aae9177a16)"><path fill="#e83975" d="M 1418.75 44.984375 L 1396.652344 33.445312 L 1382.273438 40.964844 L 921.0625 40.964844 L 921.0625 41.53125 L 911.117188 34.648438 L 896.1875 44.984375 L 911.117188 55.347656 L 921.0625 48.460938 L 921.0625 49.03125 L 1382.273438 49.03125 L 1396.652344 56.527344 Z M 1418.75 44.984375 " fill-opacity="1" fill-rule="nonzero"/></g><g fill="#ffffff" fill-opacity="1"><g transform="translate(305.388976, 22.182522)"><g><path d="M 1.453125 -6.03125 C 1.203125 -6.03125 1 -6.101562 0.84375 -6.25 C 0.695312 -6.394531 0.625 -6.585938 0.625 -6.828125 C 0.625 -7.054688 0.695312 -7.242188 0.84375 -7.390625 C 1 -7.546875 1.203125 -7.625 1.453125 -7.625 C 1.609375 -7.625 1.75 -7.585938 1.875 -7.515625 C 2.007812 -7.441406 2.109375 -7.347656 2.171875 -7.234375 C 2.242188 -7.117188 2.28125 -6.984375 2.28125 -6.828125 C 2.28125 -6.671875 2.242188 -6.53125 2.171875 -6.40625 C 2.109375 -6.289062 2.007812 -6.195312 1.875 -6.125 C 1.75 -6.0625 1.609375 -6.03125 1.453125 -6.03125 Z M 0.421875 2.28125 C 0.0234375 2.28125 -0.289062 2.226562 -0.53125 2.125 L -0.375 1.0625 L -0.28125 1.03125 C -0.144531 1.09375 0.0078125 1.125 0.1875 1.125 C 0.582031 1.125 0.78125 0.890625 0.78125 0.421875 L 0.78125 -5.390625 L 2.125 -5.390625 L 2.125 0.390625 C 2.125 1.015625 1.976562 1.484375 1.6875 1.796875 C 1.40625 2.117188 0.984375 2.28125 0.421875 2.28125 Z M 0.421875 2.28125 "/></g></g></g><g fill="#ffffff" fill-opacity="1"><g transform="translate(308.288233, 22.182522)"><g><path d="M 1.453125 -6.03125 C 1.203125 -6.03125 1 -6.101562 0.84375 -6.25 C 0.695312 -6.394531 0.625 -6.585938 0.625 -6.828125 C 0.625 -7.054688 0.695312 -7.242188 0.84375 -7.390625 C 1 -7.546875 1.203125 -7.625 1.453125 -7.625 C 1.609375 -7.625 1.75 -7.585938 1.875 -7.515625 C 2.007812 -7.441406 2.109375 -7.347656 2.171875 -7.234375 C 2.242188 -7.117188 2.28125 -6.984375 2.28125 -6.828125 C 2.28125 -6.671875 2.242188 -6.53125 2.171875 -6.40625 C 2.109375 -6.289062 2.007812 -6.195312 1.875 -6.125 C 1.75 -6.0625 1.609375 -6.03125 1.453125 -6.03125 Z M 0.78125 0 L 0.78125 -5.390625 L 2.125 -5.390625 L 2.125 0 Z M 0.78125 0 "/></g></g></g><g fill="#ffffff" fill-opacity="1"><g transform="translate(311.187491, 22.182522)"><g><path d="M 3.125 0.109375 C 2.601562 0.109375 2.140625 0 1.734375 -0.21875 C 1.335938 -0.4375 1.03125 -0.753906 0.8125 -1.171875 C 0.59375 -1.585938 0.484375 -2.09375 0.484375 -2.6875 C 0.484375 -3.28125 0.59375 -3.785156 0.8125 -4.203125 C 1.03125 -4.628906 1.335938 -4.945312 1.734375 -5.15625 C 2.140625 -5.375 2.601562 -5.484375 3.125 -5.484375 C 3.65625 -5.484375 4.117188 -5.375 4.515625 -5.15625 C 4.921875 -4.945312 5.234375 -4.628906 5.453125 -4.203125 C 5.671875 -3.785156 5.78125 -3.28125 5.78125 -2.6875 C 5.78125 -2.09375 5.671875 -1.585938 5.453125 -1.171875 C 5.234375 -0.753906 4.921875 -0.4375 4.515625 -0.21875 C 4.117188 0 3.65625 0.109375 3.125 0.109375 Z M 3.125 -1.046875 C 3.96875 -1.046875 4.390625 -1.59375 4.390625 -2.6875 C 4.390625 -3.257812 4.28125 -3.675781 4.0625 -3.9375 C 3.84375 -4.207031 3.53125 -4.34375 3.125 -4.34375 C 2.289062 -4.34375 1.875 -3.789062 1.875 -2.6875 C 1.875 -1.59375 2.289062 -1.046875 3.125 -1.046875 Z M 3.125 -1.046875 "/></g></g></g><g fill="#ffffff" fill-opacity="1"><g transform="translate(317.444811, 22.182522)"><g><path d="M 5.328125 -2.390625 L 1.859375 -2.390625 C 1.898438 -1.921875 2.035156 -1.578125 2.265625 -1.359375 C 2.492188 -1.148438 2.800781 -1.046875 3.1875 -1.046875 C 3.5 -1.046875 3.75 -1.101562 3.9375 -1.21875 C 4.132812 -1.332031 4.289062 -1.507812 4.40625 -1.75 L 4.515625 -1.75 L 5.40625 -1.171875 C 5.226562 -0.785156 4.960938 -0.472656 4.609375 -0.234375 C 4.253906 -0.00390625 3.78125 0.109375 3.1875 0.109375 C 2.632812 0.109375 2.15625 0.00390625 1.75 -0.203125 C 1.34375 -0.421875 1.03125 -0.738281 0.8125 -1.15625 C 0.59375 -1.570312 0.484375 -2.082031 0.484375 -2.6875 C 0.484375 -3.300781 0.597656 -3.816406 0.828125 -4.234375 C 1.054688 -4.660156 1.367188 -4.972656 1.765625 -5.171875 C 2.160156 -5.378906 2.601562 -5.484375 3.09375 -5.484375 C 3.851562 -5.484375 4.4375 -5.28125 4.84375 -4.875 C 5.25 -4.476562 5.453125 -3.890625 5.453125 -3.109375 C 5.453125 -2.828125 5.441406 -2.609375 5.421875 -2.453125 Z M 4.15625 -3.265625 C 4.144531 -3.671875 4.050781 -3.96875 3.875 -4.15625 C 3.695312 -4.34375 3.4375 -4.4375 3.09375 -4.4375 C 2.414062 -4.4375 2.015625 -4.046875 1.890625 -3.265625 Z M 4.15625 -3.265625 "/></g></g></g><g fill="#ffffff" fill-opacity="1"><g transform="translate(323.297022, 22.182522)"><g><path d="M 0.78125 0 L 0.78125 -5.390625 L 2.09375 -5.390625 L 2.09375 -4.578125 L 2.1875 -4.5625 C 2.320312 -4.863281 2.492188 -5.082031 2.703125 -5.21875 C 2.910156 -5.363281 3.171875 -5.4375 3.484375 -5.4375 C 3.785156 -5.4375 4.015625 -5.382812 4.171875 -5.28125 L 3.953125 -4.109375 L 3.84375 -4.09375 C 3.757812 -4.125 3.675781 -4.144531 3.59375 -4.15625 C 3.507812 -4.175781 3.410156 -4.1875 3.296875 -4.1875 C 2.910156 -4.1875 2.617188 -4.054688 2.421875 -3.796875 C 2.222656 -3.535156 2.125 -3.109375 2.125 -2.515625 L 2.125 0 Z M 0.78125 0 "/></g></g></g><g fill="#ffffff" fill-opacity="1"><g transform="translate(327.51901, 22.182522)"><g><path d="M 1.453125 -6.03125 C 1.203125 -6.03125 1 -6.101562 0.84375 -6.25 C 0.695312 -6.394531 0.625 -6.585938 0.625 -6.828125 C 0.625 -7.054688 0.695312 -7.242188 0.84375 -7.390625 C 1 -7.546875 1.203125 -7.625 1.453125 -7.625 C 1.609375 -7.625 1.75 -7.585938 1.875 -7.515625 C 2.007812 -7.441406 2.109375 -7.347656 2.171875 -7.234375 C 2.242188 -7.117188 2.28125 -6.984375 2.28125 -6.828125 C 2.28125 -6.671875 2.242188 -6.53125 2.171875 -6.40625 C 2.109375 -6.289062 2.007812 -6.195312 1.875 -6.125 C 1.75 -6.0625 1.609375 -6.03125 1.453125 -6.03125 Z M 0.421875 2.28125 C 0.0234375 2.28125 -0.289062 2.226562 -0.53125 2.125 L -0.375 1.0625 L -0.28125 1.03125 C -0.144531 1.09375 0.0078125 1.125 0.1875 1.125 C 0.582031 1.125 0.78125 0.890625 0.78125 0.421875 L 0.78125 -5.390625 L 2.125 -5.390625 L 2.125 0.390625 C 2.125 1.015625 1.976562 1.484375 1.6875 1.796875 C 1.40625 2.117188 0.984375 2.28125 0.421875 2.28125 Z M 0.421875 2.28125 "/></g></g></g><g fill="#ffffff" fill-opacity="1"><g transform="translate(330.418268, 22.182522)"><g><path d="M 2.796875 2.28125 C 1.898438 2.28125 1.238281 2.148438 0.8125 1.890625 C 0.394531 1.628906 0.1875 1.269531 0.1875 0.8125 C 0.1875 0.519531 0.273438 0.285156 0.453125 0.109375 C 0.640625 -0.0664062 0.898438 -0.1875 1.234375 -0.25 L 1.234375 -0.359375 C 1.054688 -0.460938 0.925781 -0.582031 0.84375 -0.71875 C 0.769531 -0.851562 0.734375 -1.015625 0.734375 -1.203125 C 0.734375 -1.628906 1.015625 -1.921875 1.578125 -2.078125 L 1.578125 -2.171875 C 1.285156 -2.335938 1.066406 -2.539062 0.921875 -2.78125 C 0.773438 -3.03125 0.703125 -3.332031 0.703125 -3.6875 C 0.703125 -4.039062 0.78125 -4.351562 0.9375 -4.625 C 1.101562 -4.894531 1.34375 -5.101562 1.65625 -5.25 C 1.976562 -5.40625 2.363281 -5.484375 2.8125 -5.484375 C 3.257812 -5.484375 3.613281 -5.40625 3.875 -5.25 C 4.039062 -5.488281 4.140625 -5.769531 4.171875 -6.09375 L 4.265625 -6.15625 L 5.25 -5.90625 C 5.21875 -5.65625 5.140625 -5.441406 5.015625 -5.265625 C 4.898438 -5.085938 4.710938 -4.929688 4.453125 -4.796875 L 4.453125 -4.6875 C 4.753906 -4.425781 4.90625 -4.054688 4.90625 -3.578125 C 4.90625 -3.242188 4.820312 -2.941406 4.65625 -2.671875 C 4.5 -2.410156 4.257812 -2.203125 3.9375 -2.046875 C 3.625 -1.898438 3.25 -1.828125 2.8125 -1.828125 L 2.609375 -1.828125 C 2.472656 -1.835938 2.378906 -1.84375 2.328125 -1.84375 C 2.203125 -1.84375 2.101562 -1.804688 2.03125 -1.734375 C 1.96875 -1.671875 1.9375 -1.585938 1.9375 -1.484375 C 1.9375 -1.367188 1.976562 -1.28125 2.0625 -1.21875 C 2.15625 -1.15625 2.289062 -1.117188 2.46875 -1.109375 L 3.671875 -1.0625 C 4.867188 -1.03125 5.46875 -0.519531 5.46875 0.46875 C 5.46875 0.8125 5.378906 1.117188 5.203125 1.390625 C 5.023438 1.671875 4.734375 1.890625 4.328125 2.046875 C 3.929688 2.203125 3.421875 2.28125 2.796875 2.28125 Z M 2.8125 -2.78125 C 3.070312 -2.78125 3.273438 -2.851562 3.421875 -3 C 3.566406 -3.15625 3.640625 -3.375 3.640625 -3.65625 C 3.640625 -3.9375 3.566406 -4.148438 3.421875 -4.296875 C 3.273438 -4.453125 3.070312 -4.53125 2.8125 -4.53125 C 2.539062 -4.53125 2.332031 -4.453125 2.1875 -4.296875 C 2.050781 -4.148438 1.984375 -3.9375 1.984375 -3.65625 C 1.984375 -3.375 2.050781 -3.15625 2.1875 -3 C 2.332031 -2.851562 2.539062 -2.78125 2.8125 -2.78125 Z M 2.796875 1.296875 C 3.253906 1.296875 3.585938 1.226562 3.796875 1.09375 C 4.003906 0.96875 4.109375 0.800781 4.109375 0.59375 C 4.109375 0.425781 4.054688 0.300781 3.953125 0.21875 C 3.847656 0.144531 3.675781 0.101562 3.4375 0.09375 L 2.375 0.046875 C 2.34375 0.046875 2.3125 0.046875 2.28125 0.046875 C 2.25 0.046875 2.21875 0.046875 2.1875 0.046875 C 1.957031 0.046875 1.78125 0.09375 1.65625 0.1875 C 1.539062 0.28125 1.484375 0.414062 1.484375 0.59375 C 1.484375 0.820312 1.59375 0.992188 1.8125 1.109375 C 2.03125 1.234375 2.359375 1.296875 2.796875 1.296875 Z M 2.796875 1.296875 "/></g></g></g><g fill="#ffffff" fill-opacity="1"><g transform="translate(335.933679, 22.182522)"><g><path d="M 3.125 0.109375 C 2.601562 0.109375 2.140625 0 1.734375 -0.21875 C 1.335938 -0.4375 1.03125 -0.753906 0.8125 -1.171875 C 0.59375 -1.585938 0.484375 -2.09375 0.484375 -2.6875 C 0.484375 -3.28125 0.59375 -3.785156 0.8125 -4.203125 C 1.03125 -4.628906 1.335938 -4.945312 1.734375 -5.15625 C 2.140625 -5.375 2.601562 -5.484375 3.125 -5.484375 C 3.65625 -5.484375 4.117188 -5.375 4.515625 -5.15625 C 4.921875 -4.945312 5.234375 -4.628906 5.453125 -4.203125 C 5.671875 -3.785156 5.78125 -3.28125 5.78125 -2.6875 C 5.78125 -2.09375 5.671875 -1.585938 5.453125 -1.171875 C 5.234375 -0.753906 4.921875 -0.4375 4.515625 -0.21875 C 4.117188 0 3.65625 0.109375 3.125 0.109375 Z M 3.125 -1.046875 C 3.96875 -1.046875 4.390625 -1.59375 4.390625 -2.6875 C 4.390625 -3.257812 4.28125 -3.675781 4.0625 -3.9375 C 3.84375 -4.207031 3.53125 -4.34375 3.125 -4.34375 C 2.289062 -4.34375 1.875 -3.789062 1.875 -2.6875 C 1.875 -1.59375 2.289062 -1.046875 3.125 -1.046875 Z M 3.125 -1.046875 "/></g></g></g><g fill="#ffffff" fill-opacity="1"><g transform="translate(342.190999, 22.182522)"><g><path d="M 5.328125 -2.390625 L 1.859375 -2.390625 C 1.898438 -1.921875 2.035156 -1.578125 2.265625 -1.359375 C 2.492188 -1.148438 2.800781 -1.046875 3.1875 -1.046875 C 3.5 -1.046875 3.75 -1.101562 3.9375 -1.21875 C 4.132812 -1.332031 4.289062 -1.507812 4.40625 -1.75 L 4.515625 -1.75 L 5.40625 -1.171875 C 5.226562 -0.785156 4.960938 -0.472656 4.609375 -0.234375 C 4.253906 -0.00390625 3.78125 0.109375 3.1875 0.109375 C 2.632812 0.109375 2.15625 0.00390625 1.75 -0.203125 C 1.34375 -0.421875 1.03125 -0.738281 0.8125 -1.15625 C 0.59375 -1.570312 0.484375 -2.082031 0.484375 -2.6875 C 0.484375 -3.300781 0.597656 -3.816406 0.828125 -4.234375 C 1.054688 -4.660156 1.367188 -4.972656 1.765625 -5.171875 C 2.160156 -5.378906 2.601562 -5.484375 3.09375 -5.484375 C 3.851562 -5.484375 4.4375 -5.28125 4.84375 -4.875 C 5.25 -4.476562 5.453125 -3.890625 5.453125 -3.109375 C 5.453125 -2.828125 5.441406 -2.609375 5.421875 -2.453125 Z M 4.15625 -3.265625 C 4.144531 -3.671875 4.050781 -3.96875 3.875 -4.15625 C 3.695312 -4.34375 3.4375 -4.4375 3.09375 -4.4375 C 2.414062 -4.4375 2.015625 -4.046875 1.890625 -3.265625 Z M 4.15625 -3.265625 "/></g></g></g><g fill="#ffffff" fill-opacity="1"><g transform="translate(348.04321, 22.182522)"><g><path d="M 1.453125 -6.03125 C 1.203125 -6.03125 1 -6.101562 0.84375 -6.25 C 0.695312 -6.394531 0.625 -6.585938 0.625 -6.828125 C 0.625 -7.054688 0.695312 -7.242188 0.84375 -7.390625 C 1 -7.546875 1.203125 -7.625 1.453125 -7.625 C 1.609375 -7.625 1.75 -7.585938 1.875 -7.515625 C 2.007812 -7.441406 2.109375 -7.347656 2.171875 -7.234375 C 2.242188 -7.117188 2.28125 -6.984375 2.28125 -6.828125 C 2.28125 -6.671875 2.242188 -6.53125 2.171875 -6.40625 C 2.109375 -6.289062 2.007812 -6.195312 1.875 -6.125 C 1.75 -6.0625 1.609375 -6.03125 1.453125 -6.03125 Z M 0.421875 2.28125 C 0.0234375 2.28125 -0.289062 2.226562 -0.53125 2.125 L -0.375 1.0625 L -0.28125 1.03125 C -0.144531 1.09375 0.0078125 1.125 0.1875 1.125 C 0.582031 1.125 0.78125 0.890625 0.78125 0.421875 L 0.78125 -5.390625 L 2.125 -5.390625 L 2.125 0.390625 C 2.125 1.015625 1.976562 1.484375 1.6875 1.796875 C 1.40625 2.117188 0.984375 2.28125 0.421875 2.28125 Z M 0.421875 2.28125 "/></g></g></g><g fill="#ffffff" fill-opacity="1"><g transform="translate(350.942467, 22.182522)"><g><path d="M 0.78125 0 L 0.78125 -5.390625 L 2.09375 -5.390625 L 2.09375 -4.578125 L 2.1875 -4.5625 C 2.320312 -4.863281 2.492188 -5.082031 2.703125 -5.21875 C 2.910156 -5.363281 3.171875 -5.4375 3.484375 -5.4375 C 3.785156 -5.4375 4.015625 -5.382812 4.171875 -5.28125 L 3.953125 -4.109375 L 3.84375 -4.09375 C 3.757812 -4.125 3.675781 -4.144531 3.59375 -4.15625 C 3.507812 -4.175781 3.410156 -4.1875 3.296875 -4.1875 C 2.910156 -4.1875 2.617188 -4.054688 2.421875 -3.796875 C 2.222656 -3.535156 2.125 -3.109375 2.125 -2.515625 L 2.125 0 Z M 0.78125 0 "/></g></g></g><g fill="#ffffff" fill-opacity="1"><g transform="translate(355.022892, 22.182522)"><g><path d="M 3.125 0.109375 C 2.601562 0.109375 2.140625 0 1.734375 -0.21875 C 1.335938 -0.4375 1.03125 -0.753906 0.8125 -1.171875 C 0.59375 -1.585938 0.484375 -2.09375 0.484375 -2.6875 C 0.484375 -3.28125 0.59375 -3.785156 0.8125 -4.203125 C 1.03125 -4.628906 1.335938 -4.945312 1.734375 -5.15625 C 2.140625 -5.375 2.601562 -5.484375 3.125 -5.484375 C 3.65625 -5.484375 4.117188 -5.375 4.515625 -5.15625 C 4.921875 -4.945312 5.234375 -4.628906 5.453125 -4.203125 C 5.671875 -3.785156 5.78125 -3.28125 5.78125 -2.6875 C 5.78125 -2.09375 5.671875 -1.585938 5.453125 -1.171875 C 5.234375 -0.753906 4.921875 -0.4375 4.515625 -0.21875 C 4.117188 0 3.65625 0.109375 3.125 0.109375 Z M 3.125 -1.046875 C 3.96875 -1.046875 4.390625 -1.59375 4.390625 -2.6875 C 4.390625 -3.257812 4.28125 -3.675781 4.0625 -3.9375 C 3.84375 -4.207031 3.53125 -4.34375 3.125 -4.34375 C 2.289062 -4.34375 1.875 -3.789062 1.875 -2.6875 C 1.875 -1.59375 2.289062 -1.046875 3.125 -1.046875 Z M 3.125 -1.046875 "/></g></g></g><g fill="#ffffff" fill-opacity="1"><g transform="translate(361.241165, 22.182522)"><g><path d="M 2.796875 2.28125 C 1.898438 2.28125 1.238281 2.148438 0.8125 1.890625 C 0.394531 1.628906 0.1875 1.269531 0.1875 0.8125 C 0.1875 0.519531 0.273438 0.285156 0.453125 0.109375 C 0.640625 -0.0664062 0.898438 -0.1875 1.234375 -0.25 L 1.234375 -0.359375 C 1.054688 -0.460938 0.925781 -0.582031 0.84375 -0.71875 C 0.769531 -0.851562 0.734375 -1.015625 0.734375 -1.203125 C 0.734375 -1.628906 1.015625 -1.921875 1.578125 -2.078125 L 1.578125 -2.171875 C 1.285156 -2.335938 1.066406 -2.539062 0.921875 -2.78125 C 0.773438 -3.03125 0.703125 -3.332031 0.703125 -3.6875 C 0.703125 -4.039062 0.78125 -4.351562 0.9375 -4.625 C 1.101562 -4.894531 1.34375 -5.101562 1.65625 -5.25 C 1.976562 -5.40625 2.363281 -5.484375 2.8125 -5.484375 C 3.257812 -5.484375 3.613281 -5.40625 3.875 -5.25 C 4.039062 -5.488281 4.140625 -5.769531 4.171875 -6.09375 L 4.265625 -6.15625 L 5.25 -5.90625 C 5.21875 -5.65625 5.140625 -5.441406 5.015625 -5.265625 C 4.898438 -5.085938 4.710938 -4.929688 4.453125 -4.796875 L 4.453125 -4.6875 C 4.753906 -4.425781 4.90625 -4.054688 4.90625 -3.578125 C 4.90625 -3.242188 4.820312 -2.941406 4.65625 -2.671875 C 4.5 -2.410156 4.257812 -2.203125 3.9375 -2.046875 C 3.625 -1.898438 3.25 -1.828125 2.8125 -1.828125 L 2.609375 -1.828125 C 2.472656 -1.835938 2.378906 -1.84375 2.328125 -1.84375 C 2.203125 -1.84375 2.101562 -1.804688 2.03125 -1.734375 C 1.96875 -1.671875 1.9375 -1.585938 1.9375 -1.484375 C 1.9375 -1.367188 1.976562 -1.28125 2.0625 -1.21875 C 2.15625 -1.15625 2.289062 -1.117188 2.46875 -1.109375 L 3.671875 -1.0625 C 4.867188 -1.03125 5.46875 -0.519531 5.46875 0.46875 C 5.46875 0.8125 5.378906 1.117188 5.203125 1.390625 C 5.023438 1.671875 4.734375 1.890625 4.328125 2.046875 C 3.929688 2.203125 3.421875 2.28125 2.796875 2.28125 Z M 2.8125 -2.78125 C 3.070312 -2.78125 3.273438 -2.851562 3.421875 -3 C 3.566406 -3.15625 3.640625 -3.375 3.640625 -3.65625 C 3.640625 -3.9375 3.566406 -4.148438 3.421875 -4.296875 C 3.273438 -4.453125 3.070312 -4.53125 2.8125 -4.53125 C 2.539062 -4.53125 2.332031 -4.453125 2.1875 -4.296875 C 2.050781 -4.148438 1.984375 -3.9375 1.984375 -3.65625 C 1.984375 -3.375 2.050781 -3.15625 2.1875 -3 C 2.332031 -2.851562 2.539062 -2.78125 2.8125 -2.78125 Z M 2.796875 1.296875 C 3.253906 1.296875 3.585938 1.226562 3.796875 1.09375 C 4.003906 0.96875 4.109375 0.800781 4.109375 0.59375 C 4.109375 0.425781 4.054688 0.300781 3.953125 0.21875 C 3.847656 0.144531 3.675781 0.101562 3.4375 0.09375 L 2.375 0.046875 C 2.34375 0.046875 2.3125 0.046875 2.28125 0.046875 C 2.25 0.046875 2.21875 0.046875 2.1875 0.046875 C 1.957031 0.046875 1.78125 0.09375 1.65625 0.1875 C 1.539062 0.28125 1.484375 0.414062 1.484375 0.59375 C 1.484375 0.820312 1.59375 0.992188 1.8125 1.109375 C 2.03125 1.234375 2.359375 1.296875 2.796875 1.296875 Z M 2.796875 1.296875 "/></g></g></g><g fill="#ffffff" fill-opacity="1"><g transform="translate(367.186164, 22.182522)"><g><path d="M 1.453125 -6.03125 C 1.203125 -6.03125 1 -6.101562 0.84375 -6.25 C 0.695312 -6.394531 0.625 -6.585938 0.625 -6.828125 C 0.625 -7.054688 0.695312 -7.242188 0.84375 -7.390625 C 1 -7.546875 1.203125 -7.625 1.453125 -7.625 C 1.609375 -7.625 1.75 -7.585938 1.875 -7.515625 C 2.007812 -7.441406 2.109375 -7.347656 2.171875 -7.234375 C 2.242188 -7.117188 2.28125 -6.984375 2.28125 -6.828125 C 2.28125 -6.671875 2.242188 -6.53125 2.171875 -6.40625 C 2.109375 -6.289062 2.007812 -6.195312 1.875 -6.125 C 1.75 -6.0625 1.609375 -6.03125 1.453125 -6.03125 Z M 0.421875 2.28125 C 0.0234375 2.28125 -0.289062 2.226562 -0.53125 2.125 L -0.375 1.0625 L -0.28125 1.03125 C -0.144531 1.09375 0.0078125 1.125 0.1875 1.125 C 0.582031 1.125 0.78125 0.890625 0.78125 0.421875 L 0.78125 -5.390625 L 2.125 -5.390625 L 2.125 0.390625 C 2.125 1.015625 1.976562 1.484375 1.6875 1.796875 C 1.40625 2.117188 0.984375 2.28125 0.421875 2.28125 Z M 0.421875 2.28125 "/></g></g></g><g fill="#ffffff" fill-opacity="1"><g transform="translate(370.085422, 22.182522)"><g><path d="M 3.125 0.109375 C 2.601562 0.109375 2.140625 0 1.734375 -0.21875 C 1.335938 -0.4375 1.03125 -0.753906 0.8125 -1.171875 C 0.59375 -1.585938 0.484375 -2.09375 0.484375 -2.6875 C 0.484375 -3.28125 0.59375 -3.785156 0.8125 -4.203125 C 1.03125 -4.628906 1.335938 -4.945312 1.734375 -5.15625 C 2.140625 -5.375 2.601562 -5.484375 3.125 -5.484375 C 3.65625 -5.484375 4.117188 -5.375 4.515625 -5.15625 C 4.921875 -4.945312 5.234375 -4.628906 5.453125 -4.203125 C 5.671875 -3.785156 5.78125 -3.28125 5.78125 -2.6875 C 5.78125 -2.09375 5.671875 -1.585938 5.453125 -1.171875 C 5.234375 -0.753906 4.921875 -0.4375 4.515625 -0.21875 C 4.117188 0 3.65625 0.109375 3.125 0.109375 Z M 3.125 -1.046875 C 3.96875 -1.046875 4.390625 -1.59375 4.390625 -2.6875 C 4.390625 -3.257812 4.28125 -3.675781 4.0625 -3.9375 C 3.84375 -4.207031 3.53125 -4.34375 3.125 -4.34375 C 2.289062 -4.34375 1.875 -3.789062 1.875 -2.6875 C 1.875 -1.59375 2.289062 -1.046875 3.125 -1.046875 Z M 3.125 -1.046875 "/></g></g></g><g fill="#ffffff" fill-opacity="1"><g transform="translate(376.342742, 22.182522)"><g><path d="M 5.328125 -2.390625 L 1.859375 -2.390625 C 1.898438 -1.921875 2.035156 -1.578125 2.265625 -1.359375 C 2.492188 -1.148438 2.800781 -1.046875 3.1875 -1.046875 C 3.5 -1.046875 3.75 -1.101562 3.9375 -1.21875 C 4.132812 -1.332031 4.289062 -1.507812 4.40625 -1.75 L 4.515625 -1.75 L 5.40625 -1.171875 C 5.226562 -0.785156 4.960938 -0.472656 4.609375 -0.234375 C 4.253906 -0.00390625 3.78125 0.109375 3.1875 0.109375 C 2.632812 0.109375 2.15625 0.00390625 1.75 -0.203125 C 1.34375 -0.421875 1.03125 -0.738281 0.8125 -1.15625 C 0.59375 -1.570312 0.484375 -2.082031 0.484375 -2.6875 C 0.484375 -3.300781 0.597656 -3.816406 0.828125 -4.234375 C 1.054688 -4.660156 1.367188 -4.972656 1.765625 -5.171875 C 2.160156 -5.378906 2.601562 -5.484375 3.09375 -5.484375 C 3.851562 -5.484375 4.4375 -5.28125 4.84375 -4.875 C 5.25 -4.476562 5.453125 -3.890625 5.453125 -3.109375 C 5.453125 -2.828125 5.441406 -2.609375 5.421875 -2.453125 Z M 4.15625 -3.265625 C 4.144531 -3.671875 4.050781 -3.96875 3.875 -4.15625 C 3.695312 -4.34375 3.4375 -4.4375 3.09375 -4.4375 C 2.414062 -4.4375 2.015625 -4.046875 1.890625 -3.265625 Z M 4.15625 -3.265625 "/></g></g></g><g fill="#ffffff" fill-opacity="1"><g transform="translate(382.194953, 22.182522)"><g><path d="M 1.453125 -6.03125 C 1.203125 -6.03125 1 -6.101562 0.84375 -6.25 C 0.695312 -6.394531 0.625 -6.585938 0.625 -6.828125 C 0.625 -7.054688 0.695312 -7.242188 0.84375 -7.390625 C 1 -7.546875 1.203125 -7.625 1.453125 -7.625 C 1.609375 -7.625 1.75 -7.585938 1.875 -7.515625 C 2.007812 -7.441406 2.109375 -7.347656 2.171875 -7.234375 C 2.242188 -7.117188 2.28125 -6.984375 2.28125 -6.828125 C 2.28125 -6.671875 2.242188 -6.53125 2.171875 -6.40625 C 2.109375 -6.289062 2.007812 -6.195312 1.875 -6.125 C 1.75 -6.0625 1.609375 -6.03125 1.453125 -6.03125 Z M 0.421875 2.28125 C 0.0234375 2.28125 -0.289062 2.226562 -0.53125 2.125 L -0.375 1.0625 L -0.28125 1.03125 C -0.144531 1.09375 0.0078125 1.125 0.1875 1.125 C 0.582031 1.125 0.78125 0.890625 0.78125 0.421875 L 0.78125 -5.390625 L 2.125 -5.390625 L 2.125 0.390625 C 2.125 1.015625 1.976562 1.484375 1.6875 1.796875 C 1.40625 2.117188 0.984375 2.28125 0.421875 2.28125 Z M 0.421875 2.28125 "/></g></g></g><g fill="#ffffff" fill-opacity="1"><g transform="translate(385.09421, 22.182522)"><g><path d="M 0.78125 0 L 0.78125 -5.390625 L 2.09375 -5.390625 L 2.09375 -4.578125 L 2.1875 -4.5625 C 2.320312 -4.863281 2.492188 -5.082031 2.703125 -5.21875 C 2.910156 -5.363281 3.171875 -5.4375 3.484375 -5.4375 C 3.785156 -5.4375 4.015625 -5.382812 4.171875 -5.28125 L 3.953125 -4.109375 L 3.84375 -4.09375 C 3.757812 -4.125 3.675781 -4.144531 3.59375 -4.15625 C 3.507812 -4.175781 3.410156 -4.1875 3.296875 -4.1875 C 2.910156 -4.1875 2.617188 -4.054688 2.421875 -3.796875 C 2.222656 -3.535156 2.125 -3.109375 2.125 -2.515625 L 2.125 0 Z M 0.78125 0 "/></g></g></g><g fill="#ffffff" fill-opacity="1"><g transform="translate(389.174635, 22.182522)"><g><path d="M 3.125 0.109375 C 2.601562 0.109375 2.140625 0 1.734375 -0.21875 C 1.335938 -0.4375 1.03125 -0.753906 0.8125 -1.171875 C 0.59375 -1.585938 0.484375 -2.09375 0.484375 -2.6875 C 0.484375 -3.28125 0.59375 -3.785156 0.8125 -4.203125 C 1.03125 -4.628906 1.335938 -4.945312 1.734375 -5.15625 C 2.140625 -5.375 2.601562 -5.484375 3.125 -5.484375 C 3.65625 -5.484375 4.117188 -5.375 4.515625 -5.15625 C 4.921875 -4.945312 5.234375 -4.628906 5.453125 -4.203125 C 5.671875 -3.785156 5.78125 -3.28125 5.78125 -2.6875 C 5.78125 -2.09375 5.671875 -1.585938 5.453125 -1.171875 C 5.234375 -0.753906 4.921875 -0.4375 4.515625 -0.21875 C 4.117188 0 3.65625 0.109375 3.125 0.109375 Z M 3.125 -1.046875 C 3.96875 -1.046875 4.390625 -1.59375 4.390625 -2.6875 C 4.390625 -3.257812 4.28125 -3.675781 4.0625 -3.9375 C 3.84375 -4.207031 3.53125 -4.34375 3.125 -4.34375 C 2.289062 -4.34375 1.875 -3.789062 1.875 -2.6875 C 1.875 -1.59375 2.289062 -1.046875 3.125 -1.046875 Z M 3.125 -1.046875 "/></g></g></g><g fill="#ffffff" fill-opacity="1"><g transform="translate(395.431955, 22.182522)"><g><path d="M 1.453125 -6.03125 C 1.203125 -6.03125 1 -6.101562 0.84375 -6.25 C 0.695312 -6.394531 0.625 -6.585938 0.625 -6.828125 C 0.625 -7.054688 0.695312 -7.242188 0.84375 -7.390625 C 1 -7.546875 1.203125 -7.625 1.453125 -7.625 C 1.609375 -7.625 1.75 -7.585938 1.875 -7.515625 C 2.007812 -7.441406 2.109375 -7.347656 2.171875 -7.234375 C 2.242188 -7.117188 2.28125 -6.984375 2.28125 -6.828125 C 2.28125 -6.671875 2.242188 -6.53125 2.171875 -6.40625 C 2.109375 -6.289062 2.007812 -6.195312 1.875 -6.125 C 1.75 -6.0625 1.609375 -6.03125 1.453125 -6.03125 Z M 0.78125 0 L 0.78125 -5.390625 L 2.125 -5.390625 L 2.125 0 Z M 0.78125 0 "/></g></g></g><g fill="#ffffff" fill-opacity="1"><g transform="translate(398.331213, 22.182522)"><g><path d="M 2.796875 2.28125 C 1.898438 2.28125 1.238281 2.148438 0.8125 1.890625 C 0.394531 1.628906 0.1875 1.269531 0.1875 0.8125 C 0.1875 0.519531 0.273438 0.285156 0.453125 0.109375 C 0.640625 -0.0664062 0.898438 -0.1875 1.234375 -0.25 L 1.234375 -0.359375 C 1.054688 -0.460938 0.925781 -0.582031 0.84375 -0.71875 C 0.769531 -0.851562 0.734375 -1.015625 0.734375 -1.203125 C 0.734375 -1.628906 1.015625 -1.921875 1.578125 -2.078125 L 1.578125 -2.171875 C 1.285156 -2.335938 1.066406 -2.539062 0.921875 -2.78125 C 0.773438 -3.03125 0.703125 -3.332031 0.703125 -3.6875 C 0.703125 -4.039062 0.78125 -4.351562 0.9375 -4.625 C 1.101562 -4.894531 1.34375 -5.101562 1.65625 -5.25 C 1.976562 -5.40625 2.363281 -5.484375 2.8125 -5.484375 C 3.257812 -5.484375 3.613281 -5.40625 3.875 -5.25 C 4.039062 -5.488281 4.140625 -5.769531 4.171875 -6.09375 L 4.265625 -6.15625 L 5.25 -5.90625 C 5.21875 -5.65625 5.140625 -5.441406 5.015625 -5.265625 C 4.898438 -5.085938 4.710938 -4.929688 4.453125 -4.796875 L 4.453125 -4.6875 C 4.753906 -4.425781 4.90625 -4.054688 4.90625 -3.578125 C 4.90625 -3.242188 4.820312 -2.941406 4.65625 -2.671875 C 4.5 -2.410156 4.257812 -2.203125 3.9375 -2.046875 C 3.625 -1.898438 3.25 -1.828125 2.8125 -1.828125 L 2.609375 -1.828125 C 2.472656 -1.835938 2.378906 -1.84375 2.328125 -1.84375 C 2.203125 -1.84375 2.101562 -1.804688 2.03125 -1.734375 C 1.96875 -1.671875 1.9375 -1.585938 1.9375 -1.484375 C 1.9375 -1.367188 1.976562 -1.28125 2.0625 -1.21875 C 2.15625 -1.15625 2.289062 -1.117188 2.46875 -1.109375 L 3.671875 -1.0625 C 4.867188 -1.03125 5.46875 -0.519531 5.46875 0.46875 C 5.46875 0.8125 5.378906 1.117188 5.203125 1.390625 C 5.023438 1.671875 4.734375 1.890625 4.328125 2.046875 C 3.929688 2.203125 3.421875 2.28125 2.796875 2.28125 Z M 2.8125 -2.78125 C 3.070312 -2.78125 3.273438 -2.851562 3.421875 -3 C 3.566406 -3.15625 3.640625 -3.375 3.640625 -3.65625 C 3.640625 -3.9375 3.566406 -4.148438 3.421875 -4.296875 C 3.273438 -4.453125 3.070312 -4.53125 2.8125 -4.53125 C 2.539062 -4.53125 2.332031 -4.453125 2.1875 -4.296875 C 2.050781 -4.148438 1.984375 -3.9375 1.984375 -3.65625 C 1.984375 -3.375 2.050781 -3.15625 2.1875 -3 C 2.332031 -2.851562 2.539062 -2.78125 2.8125 -2.78125 Z M 2.796875 1.296875 C 3.253906 1.296875 3.585938 1.226562 3.796875 1.09375 C 4.003906 0.96875 4.109375 0.800781 4.109375 0.59375 C 4.109375 0.425781 4.054688 0.300781 3.953125 0.21875 C 3.847656 0.144531 3.675781 0.101562 3.4375 0.09375 L 2.375 0.046875 C 2.34375 0.046875 2.3125 0.046875 2.28125 0.046875 C 2.25 0.046875 2.21875 0.046875 2.1875 0.046875 C 1.957031 0.046875 1.78125 0.09375 1.65625 0.1875 C 1.539062 0.28125 1.484375 0.414062 1.484375 0.59375 C 1.484375 0.820312 1.59375 0.992188 1.8125 1.109375 C 2.03125 1.234375 2.359375 1.296875 2.796875 1.296875 Z M 2.796875 1.296875 "/></g></g></g><g fill="#ffffff" fill-opacity="1"><g transform="translate(403.846624, 22.182522)"><g><path d="M 5.328125 -2.390625 L 1.859375 -2.390625 C 1.898438 -1.921875 2.035156 -1.578125 2.265625 -1.359375 C 2.492188 -1.148438 2.800781 -1.046875 3.1875 -1.046875 C 3.5 -1.046875 3.75 -1.101562 3.9375 -1.21875 C 4.132812 -1.332031 4.289062 -1.507812 4.40625 -1.75 L 4.515625 -1.75 L 5.40625 -1.171875 C 5.226562 -0.785156 4.960938 -0.472656 4.609375 -0.234375 C 4.253906 -0.00390625 3.78125 0.109375 3.1875 0.109375 C 2.632812 0.109375 2.15625 0.00390625 1.75 -0.203125 C 1.34375 -0.421875 1.03125 -0.738281 0.8125 -1.15625 C 0.59375 -1.570312 0.484375 -2.082031 0.484375 -2.6875 C 0.484375 -3.300781 0.597656 -3.816406 0.828125 -4.234375 C 1.054688 -4.660156 1.367188 -4.972656 1.765625 -5.171875 C 2.160156 -5.378906 2.601562 -5.484375 3.09375 -5.484375 C 3.851562 -5.484375 4.4375 -5.28125 4.84375 -4.875 C 5.25 -4.476562 5.453125 -3.890625 5.453125 -3.109375 C 5.453125 -2.828125 5.441406 -2.609375 5.421875 -2.453125 Z M 4.15625 -3.265625 C 4.144531 -3.671875 4.050781 -3.96875 3.875 -4.15625 C 3.695312 -4.34375 3.4375 -4.4375 3.09375 -4.4375 C 2.414062 -4.4375 2.015625 -4.046875 1.890625 -3.265625 Z M 4.15625 -3.265625 "/></g></g></g><g fill="#ffffff" fill-opacity="1"><g transform="translate(409.698835, 22.182522)"><g><path d="M 0.78125 0 L 0.78125 -5.390625 L 2.09375 -5.390625 L 2.09375 -4.578125 L 2.1875 -4.5625 C 2.320312 -4.863281 2.492188 -5.082031 2.703125 -5.21875 C 2.910156 -5.363281 3.171875 -5.4375 3.484375 -5.4375 C 3.785156 -5.4375 4.015625 -5.382812 4.171875 -5.28125 L 3.953125 -4.109375 L 3.84375 -4.09375 C 3.757812 -4.125 3.675781 -4.144531 3.59375 -4.15625 C 3.507812 -4.175781 3.410156 -4.1875 3.296875 -4.1875 C 2.910156 -4.1875 2.617188 -4.054688 2.421875 -3.796875 C 2.222656 -3.535156 2.125 -3.109375 2.125 -2.515625 L 2.125 0 Z M 0.78125 0 "/></g></g></g></svg>